<svg xmlns="http://www.w3.org/2000/svg" viewBox="0 0 64 64">
  <defs>
    <radialGradient id="bg" cx=".25" cy=".16" r="1"><stop stop-color="#241821"/><stop offset="1" stop-color="#030305"/></radialGradient>
    <linearGradient id="metal" x1="0" y1="0" x2="1" y2=".8"><stop stop-color="#d9efff"/><stop offset=".22" stop-color="#fff1e9"/><stop offset=".53" stop-color="#f8c7a6"/><stop offset=".8" stop-color="#bb668b"/><stop offset="1" stop-color="#a876bc"/></linearGradient>
  </defs>
  <rect x="1" y="1" width="62" height="62" rx="16" fill="url(#bg)" stroke="#d98968" stroke-opacity=".3"/>
  <path d="M8 28c12-12 21-7 30-2s15 4 22-3M7 43c12-9 20-7 29 0s17 6 24 0" fill="none" stroke="url(#metal)" stroke-opacity=".2" stroke-width="4" stroke-linecap="round"/>
  <path d="M15 44V23c0-5 5-6 8-2l9 17 9-17c3-4 8-3 8 2v21" fill="none" stroke="#2b1318" stroke-opacity=".55" stroke-width="12" stroke-linecap="round" stroke-linejoin="round"/>
  <path d="M15 42V21c0-5 5-6 8-2l9 17 9-17c3-4 8-3 8 2v21" fill="none" stroke="url(#metal)" stroke-width="10" stroke-linecap="round" stroke-linejoin="round"/>
  <path d="M16 36V22c0-2 2-3 3-1l10 18" fill="none" stroke="#fffaf6" stroke-opacity=".65" stroke-width="2" stroke-linecap="round"/>
</svg>
